<?xml version="1.0" encoding="utf-8"?>
<!-- Generator: Adobe Illustrator 16.0.0, SVG Export Plug-In . SVG Version: 6.00 Build 0)  -->
<!DOCTYPE svg PUBLIC "-//W3C//DTD SVG 1.1//EN" "http://www.w3.org/Graphics/SVG/1.1/DTD/svg11.dtd">
<svg version="1.1" id="Layer_1" xmlns="http://www.w3.org/2000/svg" xmlns:xlink="http://www.w3.org/1999/xlink" x="0px" y="0px"
	 width="457.005px" height="458.002px" viewBox="-46.001 917.999 457.005 458.002"
	 enable-background="new -46.001 917.999 457.005 458.002" xml:space="preserve">
<g id="camara">
	<g>
		<path d="M-46,1233c0-57.333,0-114.667,0-172c0.339-1.17,0.877-2.321,0.988-3.513c1.051-11.286,1.346-22.69,3.172-33.847
			c3.76-22.968,12.811-43.823,28.26-61.431c16.833-19.184,38.151-31.062,62.844-37.245c17.345-4.343,35.058-5.046,52.748-5.865
			c9.809-0.453,19.652-0.037,29.479-0.127c1.506-0.014,3.007-0.634,4.51-0.974c30.667,0,61.333,0,92,0
			c1.169,0.34,2.332,0.945,3.511,0.979c14.422,0.396,28.846,0.943,43.271,0.972c13.715,0.025,27.149,1.854,40.414,5.095
			c30.207,7.381,54.428,23.626,71.89,49.462c14.607,21.614,20.286,46.104,21.831,71.711c0.728,12.068,0.72,24.181,1.111,36.271
			c0.026,0.847,0.637,1.674,0.976,2.511c0,41.333,0,82.667,0,124c-0.336,0.67-0.941,1.331-0.968,2.012
			c-0.396,11.258-0.243,22.559-1.185,33.768c-0.967,11.548-2.217,23.176-4.694,34.472c-5.213,23.763-16.8,43.988-34.628,60.938
			c-16.325,15.521-35.762,24.521-57.13,29.628c-18.466,4.413-37.449,5.053-56.399,5.159c-4.996,0.028-9.994-0.065-14.986,0.052
			c-1.344,0.03-2.674,0.633-4.01,0.973c-36.668,0-73.334,0-110,0c-0.838-0.338-1.666-0.948-2.513-0.974
			c-13.094-0.395-26.194-0.541-39.28-1.108c-8.043-0.349-16.168-0.705-24.062-2.125c-16.289-2.929-31.969-8.001-46.307-16.479
			c-17.441-10.319-31.543-24.233-41.527-41.833c-13.232-23.324-18.23-48.845-18.334-75.471C-45.031,1236.338-45.66,1234.67-46,1233z
			 M182.055,960.98c-0.002,0.334-0.002,0.666-0.002,1c-29.763,0-59.522,0.029-89.285-0.013c-15.713-0.021-31.069,2.185-45.647,8.116
			c-20.296,8.26-34.282,22.684-42.387,43.274c-7.272,18.478-8.069,37.836-8.541,57.082c-0.776,31.808-0.47,63.648-0.134,95.473
			c0.296,28.034,0.707,56.09,2.205,84.075c0.556,10.391,3.406,20.932,6.843,30.839c7.599,21.913,23.274,36.125,44.896,44.329
			c16.12,6.117,33.016,6.634,49.792,7.723c15.224,0.989,30.522,1.117,45.788,1.069c26.43-0.083,52.859-0.55,79.289-0.944
			c16.268-0.243,32.529-0.781,48.796-0.945c13.056-0.131,25.823-1.953,38.164-6.121c24.405-8.242,40.78-24.572,49.22-49.055
			c5.103-14.804,5.764-30.194,6.862-45.512c0.864-12.062,1.101-24.192,1.045-36.29c-0.157-34.929-0.729-69.854-0.888-104.784
			c-0.088-19.188,0.102-38.388-3.1-57.378c-2.498-14.824-7.525-28.795-17.174-40.528c-15.005-18.248-35.258-26.979-58.179-29.226
			c-16.274-1.594-32.708-1.823-49.08-2.106C221.051,960.724,201.549,960.98,182.055,960.98z"/>
		<path d="M299.98,1146.896c-0.562,65.721-52.057,117.993-118.758,117.891c-32.098-0.051-59.992-12.043-82.871-34.957
			c-22.819-22.854-33.896-50.975-34.023-82.71c-0.124-30.263,10.245-57.472,31.087-79.9c23.425-25.209,52.894-38.246,87.073-37.983
			C247.854,1029.736,299.145,1080.845,299.98,1146.896z M106.98,1147.078c-0.352,42.219,33.365,75.609,74.86,75.536
			c42.351-0.075,75.644-31.91,75.781-75.399c0.142-44.23-34.312-75.938-75.837-75.755
			C138.891,1071.646,106.341,1106.574,106.98,1147.078z"/>
		<path d="M303.955,1052.98c-15.305,0.625-28.436-12.675-27.949-27.781c0.572-17.866,12.607-27.92,28.062-27.861
			c16.373,0.062,27.391,11.207,27.814,28.136C332.268,1040.712,318.908,1053.716,303.955,1052.98z"/>
	</g>
</g>
</svg>
